{"glyphs":{"0":{"ha":961,"x_min":6,"x_max":972,"o":"m 489 967 q 677 928 589 967 q 831 825 765 890 q 934 672 896 760 q 972 483 972 583 q 934 295 972 383 q 831 142 896 207 q 677 38 765 76 q 489 0 589 0 q 301 38 389 0 q 147 142 213 76 q 44 295 82 207 q 6 483 6 383 q 44 672 6 583 q 147 825 82 760 q 301 928 213 890 q 489 967 389 967 m 489 242 q 583 260 539 242 q 660 313 626 279 q 712 390 693 346 q 731 483 731 433 q 712 577 731 533 q 660 654 693 621 q 583 706 626 688 q 489 725 539 725 q 395 706 439 725 q 318 654 351 688 q 266 577 285 621 q 247 483 247 533 q 266 390 247 433 q 318 313 285 346 q 395 260 351 279 q 489 242 439 242 z "},"1":{"ha":961,"x_min":247,"x_max":646,"o":"m 247 967 l 646 967 l 646 0 l 404 0 l 404 725 l 404 725 l 247 725 l 247 967 l 247 967 z "},"2":{"ha":961,"x_min":101,"x_max":890,"o":"m 403 363 q 360 345 378 363 q 343 303 343 328 l 343 242 l 403 242 l 411 242 l 439 242 l 890 242 l 890 0 l 426 0 l 415 0 l 411 0 l 403 0 l 196 0 l 101 0 l 101 303 q 125 420 101 365 q 190 516 149 475 q 285 581 231 557 q 403 604 340 604 l 411 604 l 589 604 q 631 622 614 604 q 649 665 649 640 q 631 708 649 690 q 589 725 614 725 l 582 725 l 101 725 l 101 967 l 482 967 l 582 967 l 589 967 q 706 943 651 967 q 802 878 761 919 q 867 783 843 838 q 890 665 890 728 q 867 548 890 603 q 802 451 843 493 q 706 386 761 410 q 589 363 651 363 l 481 363 l 411 363 l 403 363 l 403 363 z "},"3":{"ha":961,"x_min":90,"x_max":889,"o":"m 881 665 q 866 571 881 615 q 824 489 851 526 q 872 403 854 450 q 889 303 889 356 q 865 185 889 240 q 800 88 842 129 q 703 24 758 47 q 586 0 649 0 l 417 0 l 393 0 l 90 0 l 90 242 l 393 242 l 428 242 l 586 242 q 629 259 611 242 q 647 303 647 276 q 629 345 647 328 q 586 363 611 363 l 578 363 l 471 363 l 468 363 l 400 363 l 393 363 l 263 363 l 263 604 l 306 604 l 400 604 l 578 604 q 586 606 583 604 q 624 625 608 608 q 639 665 639 642 q 621 708 639 690 q 578 725 603 725 l 571 725 l 90 725 l 90 967 l 471 967 l 571 967 l 578 967 q 695 943 640 967 q 792 878 750 919 q 857 783 833 838 q 881 665 881 728 z "},"4":{"ha":961,"x_min":72,"x_max":842,"o":"m 600 968 l 842 968 l 842 606 l 842 364 l 842 322 l 842 0 l 600 0 l 600 307 l 517 307 q 412 306 464 307 q 307 321 360 306 q 211 367 254 336 q 138 440 168 399 q 90 533 107 482 q 72 638 72 583 l 72 967 l 314 967 l 314 638 q 332 583 314 607 q 379 551 350 558 q 402 549 385 550 q 438 549 419 549 q 474 549 457 549 q 496 549 490 549 l 600 549 l 600 725 l 600 967 l 600 968 z "},"5":{"ha":961,"x_min":103,"x_max":893,"o":"m 590 967 l 893 967 l 893 725 l 413 725 l 406 725 l 344 725 l 344 665 l 344 604 l 406 604 l 583 604 l 590 604 q 708 581 653 604 q 804 516 763 557 q 869 420 846 475 q 893 303 893 365 q 869 185 893 240 q 804 89 846 131 q 708 24 763 47 q 590 0 653 0 l 583 0 l 567 0 l 103 0 l 103 242 l 554 242 l 583 242 l 590 242 q 633 260 615 242 q 651 303 651 278 q 633 345 651 328 q 590 363 615 363 l 583 363 l 513 363 l 406 363 l 103 363 l 103 665 l 103 967 l 413 967 l 590 967 z "},"6":{"ha":961,"x_min":93,"x_max":883,"o":"m 503 967 l 883 967 l 883 725 l 403 725 l 396 725 q 353 708 371 725 q 335 665 335 690 l 335 604 l 396 604 l 574 604 l 581 604 q 698 581 643 604 q 794 516 753 557 q 860 420 836 475 q 883 303 883 365 q 860 185 883 240 q 794 88 836 129 q 698 24 753 47 q 581 0 643 0 l 574 0 l 557 0 l 396 0 q 278 24 333 0 q 182 88 224 47 q 117 185 140 129 q 93 303 93 240 l 93 665 q 117 783 93 728 q 182 878 140 838 q 278 943 224 919 q 396 967 333 967 l 403 967 l 503 967 m 335 363 l 335 303 q 353 260 335 278 q 396 242 371 242 l 546 242 l 581 242 q 624 260 606 242 q 642 303 642 278 q 624 345 642 328 q 581 363 606 363 l 574 363 l 503 363 l 396 363 l 335 363 z "},"7":{"ha":961,"x_min":118,"x_max":882,"o":"m 118 725 l 118 967 l 882 967 l 882 725 l 486 0 l 213 0 l 613 725 l 118 725 z "},"8":{"ha":961,"x_min":92,"x_max":903,"o":"m 588 967 q 749 920 679 967 q 856 803 819 874 q 889 648 892 732 q 833 489 886 564 q 888 383 872 439 q 897 274 903 328 q 867 170 892 219 q 803 83 843 121 q 711 22 764 44 q 596 0 658 0 l 399 0 q 233 49 304 0 q 127 170 163 97 q 97 328 92 243 q 161 489 103 414 q 104 648 107 564 q 138 803 101 732 q 245 920 175 874 q 407 967 315 967 l 588 967 m 407 725 q 365 707 382 725 q 347 664 347 689 q 365 622 347 639 q 407 604 382 604 l 408 604 l 585 604 l 588 604 q 630 622 613 604 q 647 664 647 639 q 630 707 647 689 q 588 725 613 725 l 581 725 l 414 725 l 407 725 m 596 242 q 638 259 621 242 q 656 301 656 276 q 638 344 656 326 q 596 363 621 363 l 399 363 q 356 344 374 363 q 338 301 338 326 q 356 259 338 276 q 399 242 374 242 l 596 242 z "},"9":{"ha":961,"x_min":88,"x_max":878,"o":"m 575 968 q 692 944 638 968 q 789 879 747 921 q 854 783 831 838 q 878 665 878 728 l 878 303 q 854 185 878 240 q 789 89 831 131 q 692 24 747 47 q 575 0 638 0 l 568 0 l 468 0 l 244 0 l 88 0 l 88 243 l 568 243 l 575 243 q 618 260 600 243 q 636 303 636 278 l 636 364 l 575 364 l 397 364 l 390 364 q 273 388 328 364 q 176 452 218 411 q 111 548 135 493 q 88 665 88 603 q 111 783 88 728 q 176 879 135 838 q 273 944 218 921 q 390 968 328 968 l 397 968 l 414 968 l 575 968 m 636 665 q 618 708 636 690 q 575 726 600 726 l 425 726 l 390 726 q 347 708 365 726 q 329 665 329 690 q 347 623 329 640 q 390 606 365 606 l 397 606 l 468 606 l 575 606 l 636 606 l 636 665 z "},"\u0000":{"ha":0,"x_min":0,"x_max":0,"o":""}," ":{"ha":367,"x_min":0,"x_max":0,"o":""},"N":{"ha":1139,"x_min":106,"x_max":1036,"o":"m 794 969 l 1036 969 l 1036 128 l 1036 1 l 794 1 l 347 583 l 347 563 l 347 0 l 203 0 l 106 0 l 106 968 l 347 968 l 796 374 l 794 969 z "},"F":{"ha":963,"x_min":107,"x_max":851,"o":"m 107 725 l 107 967 l 851 967 l 851 725 l 349 725 l 349 604 l 765 604 l 765 363 l 349 363 l 349 242 l 349 0 l 107 0 l 107 242 l 107 725 z "},"E":{"ha":992,"x_min":107,"x_max":861,"o":"m 107 725 l 107 967 l 861 967 l 861 725 l 349 725 l 349 604 l 749 604 l 749 363 l 349 363 l 349 242 l 861 242 l 861 0 l 107 0 l 107 242 l 107 363 l 107 604 l 107 725 z "},"R":{"ha":985,"x_min":107,"x_max":915,"o":"m 789 896 q 865 816 838 860 q 907 714 892 772 q 915 636 915 676 q 868 465 915 544 q 736 343 821 386 l 915 0 l 643 0 l 482 307 l 349 307 l 349 0 l 107 0 l 107 322 l 107 363 l 107 604 l 107 967 l 176 967 l 349 967 l 364 967 l 401 967 l 585 967 q 576 967 572 967 q 592 966 581 967 q 618 965 604 965 q 639 963 632 964 q 667 956 654 960 q 693 949 679 953 q 789 896 747 931 m 646 572 q 672 616 667 592 q 669 663 676 640 q 644 703 663 686 q 599 724 625 719 q 549 726 574 728 q 500 725 525 725 l 401 725 l 364 725 l 349 725 l 349 549 l 456 549 l 554 549 q 602 551 579 549 q 646 572 625 553 z "},"V":{"ha":1058,"x_min":-17,"x_max":1060,"o":"m 794 967 l 971 967 l 1060 967 l 624 0 l 418 0 l -17 967 l 249 967 l 521 360 l 794 967 l 794 967 z "},"M":{"ha":1313,"x_min":107,"x_max":1165,"o":"m 636 557 l 843 965 l 1165 967 l 1165 0 l 924 0 l 924 594 l 724 239 l 536 239 l 349 594 l 349 0 l 107 0 l 107 967 l 421 967 l 636 557 z "},"Z":{"ha":939,"x_min":65,"x_max":879,"o":"m 65 725 l 65 967 l 879 967 l 879 725 l 401 242 l 874 242 l 874 0 l 65 0 l 65 242 l 558 725 l 65 725 z "},"T":{"ha":867,"x_min":40,"x_max":808,"o":"m 304 967 l 546 967 l 808 967 l 808 725 l 546 725 l 546 0 l 304 0 l 304 725 l 40 725 l 40 967 l 304 967 l 304 967 z "},"L":{"ha":801,"x_min":107,"x_max":754,"o":"m 349 967 l 349 242 l 754 242 l 754 0 l 107 0 l 107 967 l 349 967 l 349 967 z "},"Y":{"ha":1003,"x_min":-28,"x_max":1018,"o":"m 496 585 l 735 967 l 1018 967 l 617 349 l 617 0 l 375 0 l 375 349 l -28 967 l 256 967 l 496 585 z "},"D":{"ha":1058,"x_min":118,"x_max":1001,"o":"m 518 967 q 706 929 618 967 q 860 826 794 892 q 963 672 925 760 q 1001 483 1001 583 q 963 295 1001 383 q 860 142 925 207 q 706 38 794 76 q 518 0 618 0 l 497 0 l 118 0 l 118 967 l 497 967 l 518 967 m 518 242 q 612 260 568 242 q 689 313 656 279 q 741 390 722 346 q 760 483 760 433 q 741 577 760 533 q 689 654 722 621 q 612 706 656 688 q 518 725 568 725 l 497 725 l 360 725 l 360 242 l 497 242 l 518 242 z "},"S":{"ha":946,"x_min":61,"x_max":851,"o":"m 471 968 l 851 968 l 851 726 l 371 726 l 364 726 q 321 708 339 726 q 303 665 303 690 q 321 623 303 640 q 364 606 339 606 l 542 606 l 549 606 q 666 582 611 606 q 763 517 721 558 q 828 420 804 475 q 851 303 851 365 q 828 185 851 240 q 763 89 804 131 q 666 24 721 47 q 549 0 611 0 l 542 0 l 525 0 l 61 0 l 61 242 l 514 242 l 542 242 l 549 242 q 592 260 574 242 q 610 303 610 278 q 592 345 610 328 q 549 363 574 363 l 542 363 l 471 363 l 364 363 q 247 386 301 363 q 150 451 192 410 q 85 548 108 493 q 61 665 61 603 q 85 783 61 728 q 150 879 108 838 q 247 944 192 921 q 364 968 301 968 l 371 968 l 471 968 z "},"W":{"ha":1472,"x_min":-19,"x_max":1471,"o":"m 1206 967 l 1250 967 l 1471 967 l 1036 0 l 831 0 l 725 232 l 621 0 l 476 0 l 415 0 l -19 967 l 42 967 l 146 967 l 246 967 l 289 871 l 397 629 l 518 360 l 593 526 l 394 967 l 660 967 l 703 871 l 725 821 l 747 871 l 792 967 l 1057 967 l 858 526 l 933 360 l 1054 629 l 1163 871 l 1206 967 l 1206 967 z "},"K":{"ha":982,"x_min":107,"x_max":1058,"o":"m 650 967 l 954 967 l 589 486 l 1058 0 l 722 0 l 440 293 l 349 171 l 349 0 l 107 0 l 107 967 l 349 967 l 349 569 l 650 967 z "},"X":{"ha":990,"x_min":8,"x_max":964,"o":"m 671 967 l 964 967 l 633 483 l 964 0 l 964 0 l 671 0 l 486 269 l 301 0 l 250 0 l 8 0 l 8 0 l 340 483 l 8 967 l 301 967 l 486 697 l 671 967 l 671 967 z "},"Q":{"ha":1063,"x_min":33,"x_max":1007,"o":"m 869 819 q 973 662 939 749 q 1007 483 1007 575 l 1007 482 q 984 337 1007 408 q 917 201 961 265 l 753 408 q 765 504 769 457 q 739 592 760 551 q 684 663 718 632 q 608 710 650 693 q 519 726 567 726 q 422 703 471 725 q 316 608 351 669 q 281 481 281 547 q 317 355 282 415 q 421 264 351 294 l 622 10 q 533 0 579 0 q 400 15 465 -1 q 278 66 335 32 q 173 149 221 100 q 93 261 125 199 q 42 428 51 342 q 53 596 33 514 q 119 750 72 678 q 240 875 167 822 q 397 950 313 928 q 565 965 481 972 q 728 920 650 957 q 869 819 807 883 m 626 472 l 1007 0 l 699 0 l 678 25 l 471 288 l 626 472 z "},"J":{"ha":642,"x_min":-65,"x_max":517,"o":"m 275 967 l 517 967 l 517 376 q 488 228 517 296 q 409 112 458 161 q 296 33 360 63 q 161 0 232 4 l 121 0 q 26 17 74 3 q -65 61 -21 32 l 56 272 q 127 242 89 244 q 198 254 165 239 q 253 301 231 269 q 275 376 275 333 l 275 967 z "},"H":{"ha":1118,"x_min":110,"x_max":1013,"o":"m 771 604 l 771 968 l 1013 968 l 1013 0 l 771 0 l 771 363 l 353 363 l 353 0 l 110 0 l 110 968 l 353 968 l 353 604 l 771 604 z "},"I":{"ha":500,"x_min":107,"x_max":350,"o":"m 350 0 l 107 0 l 107 968 l 350 968 l 350 0 z "},"a":{"ha":999,"x_min":-54,"x_max":1022,"o":"m 381 967 l 588 967 l 1022 0 l 757 0 l 700 125 l 268 125 l 211 0 l -54 0 l 381 967 m 363 340 l 607 340 l 485 607 l 363 340 z "},"b":{"ha":1044,"x_min":107,"x_max":976,"o":"m 621 967 q 774 924 708 967 q 876 814 840 881 q 910 667 911 747 q 857 515 910 588 q 951 408 925 467 q 972 291 976 349 q 942 181 967 233 q 877 88 918 128 q 781 24 836 49 q 658 0 725 0 l 610 0 l 349 0 l 222 0 l 147 0 l 107 0 l 107 967 l 319 967 l 349 967 l 524 967 l 572 967 l 621 967 m 349 628 l 621 628 q 655 642 640 628 q 669 676 669 657 q 655 710 669 696 q 621 725 640 725 l 349 725 l 349 628 m 658 242 q 710 263 689 242 q 731 314 731 283 q 710 365 731 344 q 658 386 689 386 l 349 386 l 349 242 l 658 242 z "},"c":{"ha":922,"x_min":35,"x_max":901,"o":"m 707 638 q 626 704 672 682 q 533 728 581 726 q 439 714 485 731 q 358 666 393 697 q 300 589 322 635 q 278 486 278 543 q 300 383 278 429 q 358 306 322 338 q 439 258 393 274 q 533 244 485 242 q 626 268 581 246 q 707 335 671 290 l 710 338 l 901 190 q 788 85 851 128 q 653 22 724 43 q 506 3 582 1 q 358 29 431 4 q 226 100 286 54 q 124 206 167 146 q 58 338 82 267 q 35 486 35 408 q 58 634 35 563 q 124 765 82 706 q 226 871 167 825 q 358 942 286 917 q 506 969 431 967 q 652 951 582 971 q 785 889 722 931 q 896 788 847 847 l 901 782 l 710 633 l 707 638 l 707 638 z "},"d":{"ha":1058,"x_min":118,"x_max":1001,"o":"m 518 967 q 706 929 618 967 q 860 826 794 892 q 963 672 925 760 q 1001 483 1001 583 q 963 295 1001 383 q 860 142 925 207 q 706 38 794 76 q 518 0 618 0 l 497 0 l 118 0 l 118 967 l 497 967 l 518 967 m 518 242 q 612 260 568 242 q 689 313 656 279 q 741 390 722 346 q 760 483 760 433 q 741 577 760 533 q 689 654 722 621 q 612 706 656 688 q 518 725 568 725 l 497 725 l 360 725 l 360 242 l 497 242 l 518 242 z "},"e":{"ha":996,"x_min":107,"x_max":861,"o":"m 107 725 l 107 967 l 861 967 l 861 725 l 349 725 l 349 604 l 749 604 l 749 363 l 349 363 l 349 242 l 861 242 l 861 0 l 107 0 l 107 242 l 107 363 l 107 604 l 107 725 z "},"f":{"ha":967,"x_min":107,"x_max":851,"o":"m 107 725 l 107 967 l 851 967 l 851 725 l 349 725 l 349 604 l 765 604 l 765 363 l 349 363 l 349 242 l 349 0 l 107 0 l 107 242 l 107 725 z "},"g":{"ha":1021,"x_min":18,"x_max":913,"o":"m 865 592 l 913 592 l 913 478 l 913 428 l 913 0 l 506 0 q 343 27 419 0 q 206 102 267 54 q 103 215 146 150 q 39 353 60 279 q 22 508 18 428 q 58 668 25 589 q 146 807 92 747 q 267 904 200 867 q 410 957 335 942 q 563 963 486 972 q 713 920 640 954 q 847 825 786 886 l 676 640 q 572 716 631 700 q 458 721 514 732 q 354 673 401 710 q 282 576 307 636 q 265 457 257 517 q 304 349 272 397 q 388 272 336 301 q 506 242 440 242 l 668 242 l 668 365 l 432 365 l 432 592 l 585 592 l 865 592 z "},"h":{"ha":1122,"x_min":110,"x_max":1013,"o":"m 771 604 l 771 968 l 1013 968 l 1013 0 l 771 0 l 771 363 l 353 363 l 353 0 l 110 0 l 110 968 l 353 968 l 353 604 l 771 604 z "},"i":{"ha":504,"x_min":118,"x_max":361,"o":"m 361 0 l 118 0 l 118 968 l 361 968 l 361 0 z "},"j":{"ha":649,"x_min":-53,"x_max":529,"o":"m 288 967 l 529 967 l 529 376 q 500 228 529 296 q 422 112 471 161 q 308 33 372 63 q 174 0 244 4 l 133 0 q 39 17 86 3 q -53 61 -8 32 l 68 272 q 140 242 101 244 q 210 254 178 239 q 265 301 243 269 q 288 376 288 333 l 288 967 z "},"k":{"ha":988,"x_min":107,"x_max":1058,"o":"m 650 967 l 954 967 l 589 486 l 1058 0 l 722 0 l 440 293 l 349 171 l 349 0 l 107 0 l 107 967 l 349 967 l 349 569 l 650 967 z "},"l":{"ha":807,"x_min":118,"x_max":765,"o":"m 360 242 l 765 242 l 765 0 l 118 0 l 118 967 l 360 967 l 360 242 z "},"m":{"ha":1317,"x_min":107,"x_max":1165,"o":"m 636 557 l 843 965 l 1165 967 l 1165 0 l 924 0 l 924 594 l 724 239 l 536 239 l 349 594 l 349 0 l 107 0 l 107 967 l 421 967 l 636 557 z "},"n":{"ha":1143,"x_min":106,"x_max":1036,"o":"m 794 969 l 1036 969 l 1036 128 l 1036 1 l 794 1 l 347 583 l 347 563 l 347 0 l 203 0 l 106 0 l 106 968 l 347 968 l 796 374 l 794 969 z "},"o":{"ha":1046,"x_min":33,"x_max":1000,"o":"m 517 967 q 705 928 617 967 q 858 825 793 890 q 962 672 924 760 q 1000 483 1000 583 q 962 295 1000 383 q 858 142 924 207 q 705 38 793 76 q 517 0 617 0 q 328 38 417 0 q 175 142 240 76 q 72 295 110 207 q 33 483 33 383 q 72 672 33 583 q 175 825 110 760 q 328 928 240 890 q 517 967 417 967 m 517 242 q 610 260 567 242 q 688 313 654 279 q 740 390 721 346 q 758 483 758 433 q 740 577 758 533 q 688 654 721 621 q 610 706 654 688 q 517 725 567 725 q 423 706 467 725 q 346 654 379 688 q 294 577 313 621 q 275 483 275 533 q 294 390 275 433 q 346 313 313 346 q 423 260 379 279 q 517 242 467 242 z "},"p":{"ha":929,"x_min":118,"x_max":889,"o":"m 721 924 q 789 873 760 901 q 842 806 818 844 q 888 644 886 731 q 849 479 889 557 q 733 356 807 403 q 572 307 660 310 q 487 306 529 304 q 401 307 444 307 l 360 307 l 360 0 l 118 0 l 118 322 l 118 363 l 118 604 l 118 967 l 188 967 l 232 967 l 360 967 l 374 967 l 557 967 q 551 967 547 967 q 563 966 554 967 q 582 965 571 965 q 597 964 593 964 q 618 961 608 963 q 639 957 628 960 q 681 942 661 950 q 721 924 701 935 m 618 572 q 644 616 639 592 q 642 663 649 640 q 616 703 635 686 q 571 724 597 719 q 522 726 546 728 q 472 725 497 725 l 374 725 l 360 725 l 360 549 l 428 549 l 526 549 q 574 551 551 549 q 618 572 597 553 z "},"q":{"ha":1068,"x_min":33,"x_max":1007,"o":"m 869 819 q 973 662 939 749 q 1007 483 1007 575 l 1007 482 q 984 337 1007 408 q 917 201 961 265 l 753 408 q 765 504 769 457 q 739 592 760 551 q 684 663 718 632 q 608 710 650 693 q 519 726 567 726 q 422 703 471 725 q 316 608 351 669 q 281 481 281 547 q 317 355 282 415 q 421 264 351 294 l 622 10 q 533 0 579 0 q 400 15 465 -1 q 278 66 335 32 q 173 149 221 100 q 93 261 125 199 q 42 428 51 342 q 53 596 33 514 q 119 750 72 678 q 240 875 167 822 q 397 950 313 928 q 565 965 481 972 q 728 920 650 957 q 869 819 807 883 m 626 472 l 1007 0 l 699 0 l 678 25 l 471 288 l 626 472 z "},"r":{"ha":989,"x_min":118,"x_max":926,"o":"m 800 896 q 876 816 849 860 q 918 714 903 772 q 926 636 926 676 q 879 465 926 544 q 747 343 832 386 l 926 0 l 654 0 l 493 307 l 360 307 l 360 0 l 118 0 l 118 322 l 118 363 l 118 604 l 118 967 l 188 967 l 360 967 l 375 967 l 413 967 l 596 967 q 588 967 583 967 q 603 966 592 967 q 629 965 615 965 q 650 963 643 964 q 678 956 665 960 q 704 949 690 953 q 800 896 758 931 m 657 572 q 683 616 678 592 q 681 663 688 640 q 655 703 674 686 q 610 724 636 719 q 560 726 585 728 q 511 725 536 725 l 413 725 l 375 725 l 360 725 l 360 549 l 467 549 l 565 549 q 613 551 590 549 q 657 572 636 553 z "},"s":{"ha":950,"x_min":72,"x_max":863,"o":"m 482 968 l 863 968 l 863 726 l 382 726 l 375 726 q 332 708 350 726 q 314 665 314 690 q 332 623 314 640 q 375 606 350 606 l 553 606 l 560 606 q 677 582 622 606 q 774 517 732 558 q 839 420 815 475 q 863 303 863 365 q 839 185 863 240 q 774 89 815 131 q 677 24 732 47 q 560 0 622 0 l 553 0 l 536 0 l 72 0 l 72 242 l 525 242 l 553 242 l 560 242 q 603 260 585 242 q 621 303 621 278 q 603 345 621 328 q 560 363 585 363 l 553 363 l 482 363 l 375 363 q 258 386 313 363 q 161 451 203 410 q 96 548 119 493 q 72 665 72 603 q 96 783 72 728 q 161 879 119 838 q 258 944 203 921 q 375 968 313 968 l 382 968 l 482 968 z "},"t":{"ha":874,"x_min":53,"x_max":821,"o":"m 558 967 l 821 967 l 821 725 l 558 725 l 558 0 l 317 0 l 317 725 l 53 725 l 53 967 l 317 967 l 558 967 z "},"u":{"ha":1176,"x_min":92,"x_max":1069,"o":"m 886 967 l 1069 967 l 1069 489 q 1031 299 1069 388 q 926 143 993 210 q 771 38 860 76 q 581 0 682 0 q 390 38 479 0 q 235 143 301 76 q 130 299 168 210 q 92 489 92 388 l 92 967 l 275 967 l 333 967 l 333 489 q 353 392 333 438 q 406 314 372 347 q 484 261 439 281 q 581 242 529 242 q 677 261 632 242 q 756 314 722 281 q 808 392 789 347 q 828 489 828 438 l 828 967 l 886 967 z "},"v":{"ha":1065,"x_min":-4,"x_max":1072,"o":"m 983 967 l 1072 967 l 636 0 l 431 0 l -4 967 l 261 967 l 533 360 l 807 967 l 983 967 z "},"w":{"ha":1479,"x_min":-7,"x_max":1483,"o":"m 1263 967 l 1483 967 l 1049 0 l 843 0 l 738 232 l 633 0 l 489 0 l 428 0 l -7 967 l 54 967 l 158 967 l 258 967 l 301 871 l 410 629 l 531 360 l 606 526 l 407 967 l 672 967 l 715 871 l 738 821 l 760 871 l 804 967 l 1069 967 l 871 526 l 946 360 l 1067 629 l 1175 871 l 1218 967 l 1263 967 z "},"x":{"ha":996,"x_min":21,"x_max":976,"o":"m 976 967 l 646 483 l 976 0 l 976 0 l 683 0 l 499 269 l 314 0 l 263 0 l 21 0 l 21 0 l 353 483 l 21 967 l 314 967 l 499 697 l 683 967 l 976 967 z "},"y":{"ha":1008,"x_min":-28,"x_max":1018,"o":"m 496 585 l 735 967 l 1018 967 l 617 349 l 617 0 l 375 0 l 375 349 l -28 967 l 256 967 l 496 585 z "},"z":{"ha":939,"x_min":65,"x_max":879,"o":"m 65 725 l 65 967 l 879 967 l 879 725 l 401 242 l 874 242 l 874 0 l 65 0 l 65 242 l 558 725 l 65 725 z "},"G":{"ha":1010,"x_min":18,"x_max":913,"o":"m 865 592 l 913 592 l 913 478 l 913 428 l 913 0 l 506 0 q 343 27 419 0 q 206 102 267 54 q 103 215 146 150 q 39 353 60 279 q 22 508 18 428 q 58 668 25 589 q 146 807 92 747 q 267 904 200 867 q 410 957 335 942 q 563 963 486 972 q 713 920 640 954 q 847 825 786 886 l 676 640 q 572 716 631 700 q 458 721 514 732 q 354 673 401 710 q 282 576 307 636 q 265 457 257 517 q 304 349 272 397 q 388 272 336 301 q 506 242 440 242 l 668 242 l 668 365 l 432 365 l 432 592 l 585 592 l 865 592 z "},"B":{"ha":1039,"x_min":107,"x_max":976,"o":"m 621 967 q 774 924 708 967 q 876 814 840 881 q 910 667 911 747 q 857 515 910 588 q 951 408 925 467 q 972 291 976 349 q 942 181 967 233 q 877 88 918 128 q 781 24 836 49 q 658 0 725 0 l 610 0 l 349 0 l 222 0 l 147 0 l 107 0 l 107 967 l 319 967 l 349 967 l 524 967 l 572 967 l 621 967 m 349 628 l 621 628 q 655 642 640 628 q 669 676 669 657 q 655 710 669 696 q 621 725 640 725 l 349 725 l 349 628 m 658 242 q 710 263 689 242 q 731 314 731 283 q 710 365 731 344 q 658 386 689 386 l 349 386 l 349 242 l 658 242 z "},"C":{"ha":917,"x_min":24,"x_max":890,"o":"m 696 638 q 615 704 661 682 q 522 728 569 726 q 428 714 474 731 q 347 666 382 697 q 289 589 311 635 q 267 486 267 543 q 289 383 267 429 q 347 306 311 338 q 428 258 382 274 q 522 244 474 242 q 615 268 569 246 q 696 335 660 290 l 699 338 l 890 190 q 776 85 840 128 q 642 22 713 43 q 495 3 571 1 q 347 29 419 4 q 215 100 275 54 q 113 206 156 146 q 47 338 71 267 q 24 486 24 408 q 47 634 24 563 q 113 765 71 706 q 215 871 156 825 q 347 942 275 917 q 495 969 419 967 q 641 951 571 971 q 774 889 711 931 q 885 788 836 847 l 890 782 l 699 633 l 696 638 l 696 638 z "},"A":{"ha":993,"x_min":-54,"x_max":1022,"o":"m 381 967 l 588 967 l 1022 0 l 757 0 l 700 125 l 268 125 l 211 0 l -54 0 l 381 967 m 363 340 l 607 340 l 485 607 l 363 340 z "},"?":{"ha":865,"x_min":49,"x_max":821,"o":"m 518 968 q 635 944 581 968 q 732 879 690 921 q 797 783 774 838 q 821 665 821 728 q 798 550 821 604 q 735 456 775 496 q 643 390 696 415 q 529 364 590 365 q 489 344 506 361 q 472 303 472 326 l 231 303 q 254 420 231 365 q 319 517 278 475 q 415 582 360 558 q 532 606 469 606 l 518 606 q 561 623 543 606 q 579 665 579 640 q 561 708 579 690 q 518 726 543 726 l 511 726 l 49 726 l 49 968 l 411 968 l 511 968 l 518 968 m 231 243 l 472 243 l 472 158 l 472 0 l 231 0 l 231 243 z "},"!":{"ha":496,"x_min":107,"x_max":350,"o":"m 107 0 l 107 242 l 350 242 l 350 157 l 350 0 l 107 0 m 107 967 l 289 967 l 350 967 l 350 301 l 107 301 l 107 967 z "},"\"":{"ha":385,"x_min":57,"x_max":299,"o":"m 57 967 l 299 967 l 299 614 l 57 614 l 57 967 z "},":":{"ha":404,"x_min":65,"x_max":307,"o":"m 65 243 l 307 243 l 307 158 l 307 0 l 65 0 l 65 243 m 65 967 l 307 967 l 307 882 l 307 724 l 65 724 l 65 967 z "},";":{"ha":415,"x_min":71,"x_max":313,"o":"m 71 967 l 313 967 l 313 882 l 313 724 l 71 724 l 71 967 m 71 243 l 313 243 l 313 158 l 313 -106 l 71 -106 l 71 243 z "},",":{"ha":285,"x_min":-12,"x_max":229,"o":"m -12 243 l 229 243 l 229 158 l 229 -106 l -12 -106 l -12 243 z "},".":{"ha":274,"x_min":-18,"x_max":224,"o":"m -18 243 l 224 243 l 224 158 l 224 0 l -18 0 l -18 243 z "},"$":{"ha":949,"x_min":64,"x_max":854,"o":"m 329 0 l 64 0 l 64 242 l 551 242 q 594 260 576 242 q 613 303 613 278 q 594 345 613 328 q 551 363 576 363 l 367 363 q 249 386 304 363 q 153 451 194 410 q 88 548 111 493 q 64 665 64 603 q 84 775 64 724 q 140 867 104 826 q 224 933 176 907 q 329 965 272 958 l 329 1068 l 554 1068 l 554 968 l 854 968 l 854 726 l 367 726 q 324 708 342 726 q 306 665 306 690 q 324 623 306 640 q 367 606 342 606 l 551 606 q 669 582 614 606 q 765 517 724 558 q 831 420 807 475 q 854 303 854 365 q 831 185 854 240 q 766 90 807 131 q 671 24 725 49 q 554 0 617 0 l 554 -122 l 329 -122 l 329 0 z "},"'":{"ha":694,"x_min":61,"x_max":604,"o":"m 61 967 l 303 967 l 303 579 l 61 579 l 61 967 m 363 967 l 604 967 l 604 579 l 363 579 l 363 967 z "},"U":{"ha":1171,"x_min":79,"x_max":1057,"o":"m 874 967 l 1057 967 l 1057 489 q 1019 299 1057 388 q 914 143 981 210 q 758 38 847 76 q 568 0 669 0 q 378 38 467 0 q 222 143 289 76 q 117 299 156 210 q 79 489 79 388 l 79 967 l 263 967 l 321 967 l 321 489 q 340 392 321 438 q 393 314 360 347 q 472 261 426 281 q 568 242 517 242 q 665 261 619 242 q 743 314 710 281 q 796 392 776 347 q 815 489 815 438 l 815 967 l 874 967 z "},"P":{"ha":925,"x_min":107,"x_max":878,"o":"m 710 924 q 778 873 749 901 q 831 806 807 844 q 876 644 875 731 q 838 479 878 557 q 722 356 796 403 q 561 307 649 310 q 476 306 518 304 q 390 307 433 307 l 349 307 l 349 0 l 107 0 l 107 322 l 107 363 l 107 604 l 107 967 l 176 967 l 221 967 l 349 967 l 363 967 l 546 967 q 540 967 536 967 q 551 966 543 967 q 571 965 560 965 q 586 964 582 964 q 607 961 597 963 q 628 957 617 960 q 670 942 650 950 q 710 924 690 935 m 607 572 q 633 616 628 592 q 631 663 638 640 q 605 703 624 686 q 560 724 586 719 q 510 726 535 728 q 461 725 486 725 l 363 725 l 349 725 l 349 549 l 417 549 l 515 549 q 563 551 540 549 q 607 572 586 553 z "},"O":{"ha":1040,"x_min":21,"x_max":988,"o":"m 504 967 q 692 928 604 967 q 846 825 781 890 q 949 672 911 760 q 988 483 988 583 q 949 295 988 383 q 846 142 911 207 q 692 38 781 76 q 504 0 604 0 q 316 38 404 0 q 163 142 228 76 q 59 295 97 207 q 21 483 21 383 q 59 672 21 583 q 163 825 97 760 q 316 928 228 890 q 504 967 404 967 m 504 242 q 598 260 554 242 q 675 313 642 279 q 727 390 708 346 q 746 483 746 433 q 727 577 746 533 q 675 654 708 621 q 598 706 642 688 q 504 725 554 725 q 410 706 454 725 q 333 654 367 688 q 281 577 300 621 q 263 483 263 533 q 281 390 263 433 q 333 313 300 346 q 410 260 367 279 q 504 242 454 242 z "}}}
